<svg width="932" height="224" viewBox="0 0 932 224" fill="none" xmlns="http://www.w3.org/2000/svg">
<path d="M193.279 5.58105H202.659C216.549 5.58105 228.089 13.0311 228.089 28.3511C228.089 43.6711 216.789 51.6111 202.479 51.6111H193.279V5.58105ZM198.929 46.3611H200.909C212.449 46.3611 222.429 41.9611 222.429 28.6011C222.429 15.2411 212.449 10.8411 200.909 10.8411H198.929V46.3711V46.3611Z" fill="white"/>
<path d="M263.789 5.58105H288.139V10.8311H269.449V23.7111H287.599V28.9611H269.449V46.3611H288.139V51.6111H263.789V5.58105Z" fill="white"/>
<path d="M345.299 14.3111C343.619 11.4411 341.449 9.98109 338.029 9.98109C334.419 9.98109 330.459 12.4811 330.459 16.5111C330.459 20.1111 333.949 22.0011 336.769 23.1011L340.019 24.3811C346.449 26.9411 351.259 30.5511 351.259 38.2411C351.259 46.6011 344.889 52.5911 336.769 52.5911C329.439 52.5911 323.729 47.1011 322.759 39.7111L328.469 38.4911C328.409 43.5611 332.379 47.2211 337.249 47.2211C342.119 47.2211 345.609 43.0711 345.609 38.2511C345.609 33.4311 341.699 31.1711 337.799 29.5211L334.669 28.1811C329.499 25.9211 324.809 22.9311 324.809 16.5211C324.809 9.07109 331.299 4.62109 338.149 4.62109C343.199 4.62109 347.349 7.12109 349.809 11.5811L345.299 14.3311V14.3111Z" fill="white"/>
<path d="M399.709 51.6111H394.059V10.8311H383.299V5.58105H410.469V10.8311H399.709V51.6111Z" fill="white"/>
<path d="M450.439 51.6111H444.789V5.58105H450.439V51.6111Z" fill="white"/>
<path d="M488.439 3.38086L522.459 39.5809V5.58086H528.109V53.5009L494.089 17.3009V51.6109H488.439V3.38086Z" fill="white"/>
<path d="M561.539 5.58105H568.029L579.149 25.2411L590.269 5.58105H596.759L581.969 31.5911V51.6111H576.319V31.5911L561.529 5.58105H561.539Z" fill="white"/>
<path d="M655.239 28.781C658.419 28.781 661.009 26.201 661.089 22.991V12.761C661.089 9.49098 658.469 6.83098 655.239 6.83098C652.009 6.83098 649.389 9.48098 649.389 12.761V22.991C649.479 26.201 652.059 28.781 655.239 28.781ZM673.929 2.25098C670.299 2.25098 667.809 4.80098 664.709 6.33098C664.499 6.44098 664.269 6.54098 664.039 6.64098V22.971C663.949 27.831 660.049 31.751 655.239 31.751C650.429 31.751 646.439 27.751 646.439 22.811V6.64098C646.209 6.54098 645.979 6.43098 645.769 6.33098C642.669 4.80098 640.179 2.25098 636.549 2.25098C630.379 2.25098 625.919 8.67098 628.019 14.571C628.939 17.181 630.799 18.601 632.979 20.021C635.599 21.731 637.969 23.851 639.929 26.321C642.829 29.991 644.759 34.371 645.669 38.971C646.109 41.151 646.379 44.051 646.559 46.081C646.979 50.751 650.159 54.581 655.239 54.581C660.319 54.581 663.499 50.751 663.919 46.081C664.099 44.051 664.369 41.151 664.809 38.971C665.729 34.381 667.659 29.991 670.549 26.321C672.509 23.851 674.879 21.731 677.499 20.021C679.679 18.601 681.539 17.181 682.459 14.571C684.559 8.66098 680.099 2.25098 673.919 2.25098H673.929Z" fill="white"/>
<path d="M666.669 50.9812C666.669 49.6112 667.699 48.5112 668.989 48.5112C670.279 48.5112 671.319 49.6112 671.319 50.9812C671.319 52.3512 670.299 53.4512 668.989 53.4512C667.679 53.4512 666.669 52.3512 666.669 50.9812ZM670.969 50.9812C670.969 49.8112 670.059 48.8912 668.999 48.8912C667.939 48.8912 667.029 49.8112 667.029 50.9812C667.029 52.1512 667.939 53.0712 668.999 53.0712C670.059 53.0712 670.969 52.1412 670.969 50.9812ZM670.099 52.3212H669.669L668.909 51.0712H668.479V52.3212H668.129V49.6112H669.239C669.689 49.6112 670.139 49.7412 670.139 50.3312C670.139 50.8612 669.789 51.0612 669.339 51.0712L670.109 52.3212H670.099ZM668.909 50.6912C669.219 50.6912 669.779 50.7512 669.779 50.3212C669.779 50.0412 669.439 49.9912 669.169 49.9912H668.489V50.6912H668.919H668.909Z" fill="white"/>
<path d="M713.819 33.641C720.489 28.291 727.779 24.511 727.779 17.571C727.779 12.531 725.139 9.151 720.409 9.151C715.059 9.151 711.879 13.091 711.729 20.101H701.799C701.799 7.821 707.999 0.0209961 720.639 0.0209961C732.199 0.0209961 738.709 7.971 738.709 17.271C738.709 27.431 731.879 32.231 725.369 36.641C721.259 39.321 716.449 42.781 714.669 46.251H739.179V55.071H701.019C701.409 44.751 707.769 38.451 713.809 33.651L713.819 33.641Z" fill="white"/>
<path d="M213.819 169.021V174.031C213.819 183.931 205.769 191.991 195.859 191.991H163.819V101.901H195.489C205.389 101.901 213.449 109.951 213.449 119.861V124.871H221.769V93.5908H128.359V101.911H136.029C141.919 101.911 146.699 106.701 146.699 112.581V181.321C146.699 187.211 141.909 191.991 136.029 191.991H128.359V200.311H222.129V169.031H213.809L213.819 169.021Z" fill="white"/>
<path d="M202.699 167.831V126.051H194.379V131.591C194.379 138.331 189.459 144.061 182.799 145.091L170.719 146.951L182.799 148.811C189.459 149.831 194.379 155.571 194.379 162.311V167.851H202.699V126.071" fill="white"/>
<path d="M528.099 93.5811V101.901H536.299C543.859 101.901 550.009 108.051 550.009 115.611V168.971L487.499 93.5811H449.429V101.901H457.629C465.189 101.901 471.339 108.051 471.339 115.611V178.451C471.339 186.011 465.189 192.161 457.629 192.161H449.429V200.481H501.559V192.161H493.359C485.799 192.161 479.649 186.011 479.649 178.451V112.721L550.789 200.481H558.319V115.611C558.319 108.051 564.469 101.901 572.029 101.901H580.229V93.5811H528.099Z" fill="white"/>
<path d="M764.149 93.5808V101.901H772.349C779.909 101.901 786.059 108.051 786.059 115.611V168.971L723.549 93.5808H685.479V101.901H693.679C701.239 101.901 707.389 108.051 707.389 115.611V178.451C707.389 186.011 701.239 192.161 693.679 192.161H683.289C676.099 192.161 669.639 187.881 666.829 181.271L626.259 85.8408L583.609 181.601C580.749 188.021 574.369 192.161 567.349 192.161H565.049V200.481H607.139V192.161H605.679C601.969 192.161 598.539 190.321 596.489 187.231C594.439 184.141 594.079 180.261 595.519 176.851L597.699 171.681L636.289 153.841L648.259 182.401C649.189 184.611 648.959 187.021 647.629 189.011C646.309 191.011 644.169 192.151 641.769 192.151H634.509V200.471H737.609V192.151H729.409C721.849 192.151 715.699 186.001 715.699 178.441V112.711L786.839 200.471H794.369V115.601C794.369 108.041 800.519 101.891 808.079 101.891H816.279V93.5708H764.149V93.5808ZM602.499 160.301L620.809 116.931L633.069 146.181L602.499 160.301Z" fill="white"/>
<path d="M434.289 169.031H434.299V169.021L434.289 169.031Z" fill="white"/>
<path d="M434.299 169.031V174.041C434.299 183.941 426.249 192.001 416.339 192.001H384.299V101.911H415.969C425.869 101.911 433.929 109.961 433.929 119.871V124.881H442.249V93.6006H348.829H306.739V101.921H308.199C311.909 101.921 315.339 103.771 317.389 106.851C319.429 109.931 319.799 113.821 318.359 117.231L293.059 177.161L265.619 111.681C264.689 109.471 264.919 107.061 266.249 105.071C267.569 103.071 269.709 101.931 272.109 101.931H279.369V93.6106H229.129V101.931H230.589C237.779 101.931 244.239 106.211 247.049 112.821L287.619 208.251L330.269 112.491C333.129 106.081 339.509 101.931 346.529 101.931H347.619H356.499C362.389 101.931 367.169 106.721 367.169 112.601V181.341C367.169 187.221 362.379 192.011 356.499 192.011H348.829V200.331H442.609V169.051H434.299V169.031Z" fill="white"/>
<path d="M423.189 167.831V126.051H414.869V131.591C414.869 138.331 409.949 144.061 403.289 145.091L391.209 146.951L403.289 148.811C409.949 149.831 414.869 155.571 414.869 162.311V167.851H423.189V126.071" fill="white"/>
<path d="M132.979 215.221V215.201C127.799 215.201 123.009 212.571 120.229 208.211L91.4089 163.011C105.549 157.721 114.939 142.841 113.429 126.631C111.669 107.781 95.3989 93.5908 76.4689 93.5908H17.6989V101.921H24.6189C29.7889 101.921 34.5789 104.551 37.3589 108.911L66.6989 154.921L0.598877 160.991L39.8189 164.591V200.351C39.8189 208.961 33.8089 216.411 25.3789 218.221L0.598877 223.551H52.1289H79.0389V215.221H72.0489C63.6989 215.221 56.9389 208.451 56.9389 200.111V166.171L74.9589 167.821L111.119 223.561H143.799V215.231H132.969L132.979 215.221ZM84.8889 152.781L52.4589 101.901H68.3489C83.8889 101.901 96.4789 114.491 96.4789 130.031C96.4789 139.381 91.9189 147.661 84.8989 152.781H84.8889Z" fill="white"/>
<path d="M925.229 93.5808H822.979V133.391H829.599C829.599 116.071 843.639 102.021 860.969 102.021H868.879V200.091C868.879 208.441 862.109 215.201 853.769 215.201H846.779V223.531H873.689H925.219L900.439 218.201C892.019 216.391 885.999 208.941 885.999 200.331V102.011H893.859C911.179 102.011 925.229 116.051 925.229 133.381H931.849V93.5708H925.229V93.5808Z" fill="white"/>
</svg>
