<?xml version="1.0" encoding="UTF-8"?>
<svg id="Layer_2" data-name="Layer 2" xmlns="http://www.w3.org/2000/svg" viewBox="0 0 827.15 264.41">
  <defs>
    <style>
      .cls-1 {
        fill: #fff;
        stroke-width: 0px;
      }
    </style>
  </defs>
  <g id="No_Act" data-name="No Act">
    <g>
      <g>
        <g>
          <path class="cls-1" d="M139.84,5.58h9.4c13.93,0,25.5,7.47,25.5,22.83s-11.33,23.33-25.68,23.33h-9.22V5.58ZM145.51,46.47h1.99c11.57,0,21.58-4.41,21.58-17.82s-10.01-17.82-21.58-17.82h-1.99v35.63Z"/>
          <path class="cls-1" d="M210.55,5.58h24.42v5.26h-18.75v12.92h18.21v5.27h-18.21v17.45h18.75v5.26h-24.42V5.58Z"/>
          <path class="cls-1" d="M292.3,14.33c-1.69-2.88-3.86-4.35-7.29-4.35-3.62,0-7.6,2.51-7.6,6.55,0,3.61,3.5,5.51,6.33,6.61l3.25,1.29c6.45,2.57,11.27,6.18,11.27,13.9,0,8.39-6.39,14.39-14.53,14.39-7.36,0-13.08-5.51-14.05-12.92l5.73-1.22c-.06,5.08,3.92,8.75,8.8,8.75s8.38-4.16,8.38-9-3.92-7.1-7.84-8.75l-3.13-1.35c-5.19-2.27-9.89-5.26-9.89-11.69,0-7.47,6.51-11.94,13.38-11.94,5.06,0,9.22,2.51,11.69,6.98l-4.52,2.76Z"/>
          <path class="cls-1" d="M346.86,51.74h-5.67V10.84h-10.79v-5.26h27.25v5.26h-10.79v40.9Z"/>
          <path class="cls-1" d="M397.74,51.74h-5.67V5.58h5.67v46.16Z"/>
          <path class="cls-1" d="M435.85,3.38l34.12,36.3V5.58h5.67v48.06l-34.12-36.3v34.41h-5.67V3.38Z"/>
          <path class="cls-1" d="M509.15,5.58h6.51l11.15,19.71,11.15-19.71h6.51l-14.83,26.08v20.08h-5.67v-20.08l-14.83-26.08Z"/>
        </g>
        <g>
          <path class="cls-1" d="M603.13,28.85c3.19,0,5.79-2.59,5.87-5.8v-10.26h0c0-3.28-2.63-5.94-5.87-5.94s-5.86,2.66-5.87,5.94h0v10.26c.09,3.22,2.68,5.8,5.87,5.8ZM621.87,2.24c-3.64,0-6.14,2.55-9.25,4.09-.21.11-.44.21-.68.31v16.38c-.09,4.88-4,8.8-8.82,8.8s-8.83-4.02-8.83-8.96V6.64c-.23-.1-.46-.21-.67-.31-3.11-1.54-5.6-4.09-9.25-4.09-6.19,0-10.66,6.44-8.55,12.36.92,2.62,2.79,4.04,4.98,5.47,2.63,1.72,5.01,3.84,6.97,6.32,2.9,3.68,4.84,8.07,5.76,12.68.44,2.19.72,5.1.89,7.13.42,4.68,3.61,8.52,8.71,8.52s8.28-3.84,8.7-8.52c.18-2.03.46-4.94.89-7.13.93-4.61,2.86-9,5.76-12.68,1.96-2.48,4.34-4.6,6.97-6.32,2.18-1.43,4.05-2.85,4.98-5.47,2.1-5.92-2.37-12.36-8.56-12.36Z"/>
          <path class="cls-1" d="M614.59,51.11c0-1.38,1.03-2.48,2.33-2.48s2.33,1.1,2.33,2.48-1.03,2.48-2.33,2.48-2.33-1.1-2.33-2.48ZM618.9,51.11c0-1.17-.91-2.1-1.98-2.1s-1.97.93-1.97,2.1.91,2.1,1.97,2.1,1.98-.93,1.98-2.1ZM618.03,52.45h-.43l-.76-1.25h-.43v1.25h-.36v-2.72h1.11c.45,0,.9.13.9.72,0,.53-.35.73-.8.74l.77,1.25ZM616.84,50.82c.32,0,.87.06.87-.37,0-.28-.34-.33-.62-.33h-.68v.7h.43Z"/>
          <path class="cls-1" d="M661.88,33.72c6.69-5.37,14-9.16,14-16.11,0-5.05-2.65-8.45-7.39-8.45-5.37,0-8.56,3.95-8.71,10.98h-9.95c0-12.32,6.22-20.14,18.9-20.14,11.59,0,18.12,7.98,18.12,17.3,0,10.19-6.85,15.01-13.38,19.43-4.12,2.69-8.94,6.16-10.73,9.64h24.58v8.85h-38.26c.39-10.35,6.77-16.67,12.83-21.48Z"/>
        </g>
      </g>
      <g>
        <polygon class="cls-1" points="127.96 124.28 127.96 87.86 53.26 87.86 0 141.12 0 192.65 68.38 124.28 127.96 124.28"/>
        <polygon class="cls-1" points="127.96 227.99 33.01 227.99 68.38 192.61 127.96 192.61 127.96 156.19 53.26 156.19 0 209.46 0 264.41 127.96 264.41 127.96 227.99"/>
        <polygon class="cls-1" points="687.31 124.28 687.31 87.86 612.62 87.86 559.35 141.12 559.35 192.65 627.73 124.28 687.31 124.28"/>
        <polygon class="cls-1" points="687.31 227.99 592.36 227.99 627.73 192.61 687.31 192.61 687.31 156.19 612.62 156.19 559.35 209.46 559.35 264.41 687.31 264.41 687.31 227.99"/>
        <polygon class="cls-1" points="267.8 211.14 267.8 159.61 199.42 227.98 176.26 227.98 176.26 154.05 208.27 124.28 267.8 124.28 267.8 87.86 193.1 87.86 139.84 141.12 139.84 264.41 214.54 264.41 267.8 211.14"/>
        <polygon class="cls-1" points="511.05 124.28 511.05 196.03 479.09 227.98 419.52 227.98 419.52 264.41 494.21 264.41 547.47 211.14 547.47 87.86 472.78 87.86 419.52 141.12 419.52 192.65 487.89 124.28 511.05 124.28"/>
        <polygon class="cls-1" points="699.19 141.12 699.19 192.61 794.15 192.61 758.77 227.98 699.19 227.98 699.19 264.41 773.89 264.41 827.15 211.14 827.15 156.19 735.66 156.19 767.57 124.28 827.15 124.28 827.15 87.86 752.45 87.86 699.19 141.12"/>
        <polygon class="cls-1" points="316.1 87.86 279.68 87.86 279.68 192.66 316.1 156.24 316.1 87.86"/>
        <polygon class="cls-1" points="279.68 264.41 316.1 264.41 316.1 224.57 348.06 192.61 371.22 192.61 371.22 264.41 407.64 264.41 407.64 87.86 371.22 87.86 371.22 156.19 332.94 156.19 279.68 209.46 279.68 264.41"/>
      </g>
    </g>
  </g>
</svg>